# xmcd
# 
# Track frame offsets:
#     150
#     14731
#     39233
#     55472
#     85390
#     120252
#     150857
#     170095
# 
# Disc length: 2915
# 
# Revision: 2
# Processed by: cddbd v1.5.2PL0 Copyright (c) Steve Scherf et al.
# Submitted via: fre:ac v1.0.31
# 
DISCID=5b0b6108
DTITLE=Stranded Horse - Humbling Tides
DYEAR=2011
DGENRE=Pop-Folk
TTITLE0=And the shoreline it withdrew in anger
TTITLE1=Shields
TTITLE2=Les axes deregles
TTITLE3=They've unleashed the hounds for the wedding
TTITLE4=Jolting moon
TTITLE5=Le bleu et l'ether
TTITLE6=What difference does it make
TTITLE7=Halos
EXTD=
EXTT0=
EXTT1=
EXTT2=
EXTT3=
EXTT4=
EXTT5=
EXTT6=
EXTT7=
PLAYORDER=
